{
	"asset":{
		"generator":"Khronos glTF Blender I/O v3.6.27",
		"version":"2.0"
	},
	"scene":0,
	"scenes":[
		{
			"name":"Scene",
			"nodes":[
				0
			]
		}
	],
	"nodes":[
		{
			"mesh":0,
			"name":"Blob tree.001"
		}
	],
	"materials":[
		{
			"doubleSided":true,
			"name":"Wood",
			"pbrMetallicRoughness":{
				"baseColorTexture":{
					"index":0
				},
				"metallicFactor":0,
				"roughnessFactor":0.751968502998352
			}
		},
		{
			"doubleSided":true,
			"name":"Green",
			"pbrMetallicRoughness":{
				"baseColorTexture":{
					"index":1
				},
				"metallicFactor":0,
				"roughnessFactor":0.7283464670181274
			}
		}
	],
	"meshes":[
		{
			"name":"Plane.003",
			"primitives":[
				{
					"attributes":{
						"POSITION":0,
						"NORMAL":1,
						"TEXCOORD_0":2
					},
					"indices":3,
					"material":0
				},
				{
					"attributes":{
						"POSITION":4,
						"NORMAL":5,
						"TEXCOORD_0":6
					},
					"indices":7,
					"material":1
				}
			]
		}
	],
	"textures":[
		{
			"sampler":0,
			"source":0
		},
		{
			"sampler":0,
			"source":0
		}
	],
	"images":[
		{
			"bufferView":4,
			"mimeType":"image/png",
			"name":"uv_tex"
		}
	],
	"accessors":[
		{
			"bufferView":0,
			"componentType":5126,
			"count":525,
			"max":[
				1.7152369022369385,
				4.207794666290283,
				0.6552996039390564
			],
			"min":[
				-1.5615897178649902,
				-0.09891080856323242,
				-1.198534369468689
			],
			"type":"VEC3"
		},
		{
			"bufferView":1,
			"componentType":5126,
			"count":525,
			"type":"VEC3"
		},
		{
			"bufferView":2,
			"componentType":5126,
			"count":525,
			"type":"VEC2"
		},
		{
			"bufferView":3,
			"componentType":5123,
			"count":723,
			"type":"SCALAR"
		},
		{
			"bufferView":5,
			"componentType":5126,
			"count":3141,
			"max":[
				1.943063497543335,
				4.84839391708374,
				1.3070366382598877
			],
			"min":[
				-2.0567169189453125,
				2.895106792449951,
				-1.5842154026031494
			],
			"type":"VEC3"
		},
		{
			"bufferView":6,
			"componentType":5126,
			"count":3141,
			"type":"VEC3"
		},
		{
			"bufferView":7,
			"componentType":5126,
			"count":3141,
			"type":"VEC2"
		},
		{
			"bufferView":8,
			"componentType":5123,
			"count":3141,
			"type":"SCALAR"
		}
	],
	"bufferViews":[
		{
			"buffer":0,
			"byteLength":6300,
			"byteOffset":0,
			"target":34962
		},
		{
			"buffer":0,
			"byteLength":6300,
			"byteOffset":6300,
			"target":34962
		},
		{
			"buffer":0,
			"byteLength":4200,
			"byteOffset":12600,
			"target":34962
		},
		{
			"buffer":0,
			"byteLength":1446,
			"byteOffset":16800,
			"target":34963
		},
		{
			"buffer":0,
			"byteLength":106830,
			"byteOffset":18248
		},
		{
			"buffer":0,
			"byteLength":37692,
			"byteOffset":125080,
			"target":34962
		},
		{
			"buffer":0,
			"byteLength":37692,
			"byteOffset":162772,
			"target":34962
		},
		{
			"buffer":0,
			"byteLength":25128,
			"byteOffset":200464,
			"target":34962
		},
		{
			"buffer":0,
			"byteLength":6282,
			"byteOffset":225592,
			"target":34963
		}
	],
	"samplers":[
		{
			"magFilter":9729,
			"minFilter":9987
		}
	],
	"buffers":[
		{
			"byteLength":231876,
			"uri":"data:application/octet-stream;base64,"
		}
	]
}
