{
	"asset":{
		"generator":"Khronos glTF Blender I/O v3.6.28",
		"version":"2.0"
	},
	"scene":0,
	"scenes":[
		{
			"name":"Scene",
			"nodes":[
				0
			]
		}
	],
	"nodes":[
		{
			"mesh":0,
			"name":"Cylinder"
		}
	],
	"materials":[
		{
			"doubleSided":true,
			"name":"lighter dark",
			"pbrMetallicRoughness":{
				"baseColorTexture":{
					"index":0
				},
				"metallicFactor":0,
				"roughnessFactor":0.5
			}
		},
		{
			"doubleSided":true,
			"name":"dark dark",
			"pbrMetallicRoughness":{
				"baseColorTexture":{
					"index":1
				},
				"metallicFactor":0,
				"roughnessFactor":0.8622047305107117
			}
		}
	],
	"meshes":[
		{
			"name":"Cylinder.001",
			"primitives":[
				{
					"attributes":{
						"POSITION":0,
						"NORMAL":1,
						"TEXCOORD_0":2
					},
					"indices":3,
					"material":0
				},
				{
					"attributes":{
						"POSITION":4,
						"NORMAL":5,
						"TEXCOORD_0":6
					},
					"indices":7,
					"material":1
				}
			]
		}
	],
	"textures":[
		{
			"sampler":0,
			"source":0
		},
		{
			"sampler":0,
			"source":0
		}
	],
	"images":[
		{
			"bufferView":4,
			"mimeType":"image/png",
			"name":"Baxed texture"
		}
	],
	"accessors":[
		{
			"bufferView":0,
			"componentType":5126,
			"count":1359,
			"max":[
				0.11371657252311707,
				0.6269018054008484,
				0.8183189034461975
			],
			"min":[
				-0.11281676590442657,
				-0.4919090270996094,
				-0.8191036581993103
			],
			"type":"VEC3"
		},
		{
			"bufferView":1,
			"componentType":5126,
			"count":1359,
			"type":"VEC3"
		},
		{
			"bufferView":2,
			"componentType":5126,
			"count":1359,
			"type":"VEC2"
		},
		{
			"bufferView":3,
			"componentType":5123,
			"count":2973,
			"type":"SCALAR"
		},
		{
			"bufferView":5,
			"componentType":5126,
			"count":793,
			"max":[
				0.11371657252311707,
				0.5854406952857971,
				0.7080410718917847
			],
			"min":[
				-0.11281676590442657,
				0.11245323717594147,
				-0.7890212535858154
			],
			"type":"VEC3"
		},
		{
			"bufferView":6,
			"componentType":5126,
			"count":793,
			"type":"VEC3"
		},
		{
			"bufferView":7,
			"componentType":5126,
			"count":793,
			"type":"VEC2"
		},
		{
			"bufferView":8,
			"componentType":5123,
			"count":1446,
			"type":"SCALAR"
		}
	],
	"bufferViews":[
		{
			"buffer":0,
			"byteLength":16308,
			"byteOffset":0,
			"target":34962
		},
		{
			"buffer":0,
			"byteLength":16308,
			"byteOffset":16308,
			"target":34962
		},
		{
			"buffer":0,
			"byteLength":10872,
			"byteOffset":32616,
			"target":34962
		},
		{
			"buffer":0,
			"byteLength":5946,
			"byteOffset":43488,
			"target":34963
		},
		{
			"buffer":0,
			"byteLength":41977,
			"byteOffset":49436
		},
		{
			"buffer":0,
			"byteLength":9516,
			"byteOffset":91416,
			"target":34962
		},
		{
			"buffer":0,
			"byteLength":9516,
			"byteOffset":100932,
			"target":34962
		},
		{
			"buffer":0,
			"byteLength":6344,
			"byteOffset":110448,
			"target":34962
		},
		{
			"buffer":0,
			"byteLength":2892,
			"byteOffset":116792,
			"target":34963
		}
	],
	"samplers":[
		{
			"magFilter":9729,
			"minFilter":9987
		}
	],
	"buffers":[
		{
			"byteLength":119684,
			"uri":"data:application/octet-stream;base64,"
		}
	]
}
