{
	"asset":{
		"generator":"Khronos glTF Blender I/O v3.6.28",
		"version":"2.0"
	},
	"scene":0,
	"scenes":[
		{
			"name":"Scene",
			"nodes":[
				0
			]
		}
	],
	"nodes":[
		{
			"mesh":0,
			"name":"Ridges in handle.001"
		}
	],
	"materials":[
		{
			"doubleSided":true,
			"name":"Inside ridges",
			"pbrMetallicRoughness":{
				"baseColorTexture":{
					"index":0
				},
				"metallicFactor":0.06363636255264282,
				"roughnessFactor":0.5
			}
		},
		{
			"doubleSided":true,
			"name":"Material.003",
			"pbrMetallicRoughness":{
				"baseColorTexture":{
					"index":1
				},
				"metallicFactor":0.072727270424366,
				"roughnessFactor":0.5
			}
		},
		{
			"doubleSided":true,
			"name":"Base color",
			"pbrMetallicRoughness":{
				"baseColorTexture":{
					"index":2
				},
				"metallicFactor":0.13636364042758942,
				"roughnessFactor":0.5
			}
		},
		{
			"doubleSided":true,
			"name":"Material.005",
			"pbrMetallicRoughness":{
				"baseColorTexture":{
					"index":3
				},
				"metallicFactor":0.08636363595724106,
				"roughnessFactor":0.5
			}
		},
		{
			"doubleSided":true,
			"name":"Material.006",
			"pbrMetallicRoughness":{
				"baseColorTexture":{
					"index":4
				},
				"metallicFactor":0.12727272510528564,
				"roughnessFactor":0.5
			}
		},
		{
			"doubleSided":true,
			"name":"Top",
			"pbrMetallicRoughness":{
				"baseColorTexture":{
					"index":5
				},
				"metallicFactor":0.09090909361839294,
				"roughnessFactor":0.5
			}
		},
		{
			"doubleSided":true,
			"name":"Material.002",
			"pbrMetallicRoughness":{
				"baseColorTexture":{
					"index":6
				},
				"metallicFactor":0.08181817829608917,
				"roughnessFactor":0.5
			}
		}
	],
	"meshes":[
		{
			"name":"Cube.009",
			"primitives":[
				{
					"attributes":{
						"POSITION":0,
						"NORMAL":1,
						"TEXCOORD_0":2
					},
					"indices":3,
					"material":0
				},
				{
					"attributes":{
						"POSITION":4,
						"NORMAL":5,
						"TEXCOORD_0":6
					},
					"indices":7,
					"material":1
				},
				{
					"attributes":{
						"POSITION":8,
						"NORMAL":9,
						"TEXCOORD_0":10
					},
					"indices":11,
					"material":2
				},
				{
					"attributes":{
						"POSITION":12,
						"NORMAL":13,
						"TEXCOORD_0":14
					},
					"indices":15,
					"material":3
				},
				{
					"attributes":{
						"POSITION":16,
						"NORMAL":17,
						"TEXCOORD_0":18
					},
					"indices":19,
					"material":4
				},
				{
					"attributes":{
						"POSITION":20,
						"NORMAL":21,
						"TEXCOORD_0":22
					},
					"indices":23,
					"material":5
				},
				{
					"attributes":{
						"POSITION":24,
						"NORMAL":25,
						"TEXCOORD_0":26
					},
					"indices":27,
					"material":6
				}
			]
		}
	],
	"textures":[
		{
			"sampler":0,
			"source":0
		},
		{
			"sampler":0,
			"source":0
		},
		{
			"sampler":0,
			"source":0
		},
		{
			"sampler":0,
			"source":0
		},
		{
			"sampler":0,
			"source":0
		},
		{
			"sampler":0,
			"source":0
		},
		{
			"sampler":0,
			"source":0
		}
	],
	"images":[
		{
			"bufferView":4,
			"mimeType":"image/png",
			"name":"Baked texture"
		}
	],
	"accessors":[
		{
			"bufferView":0,
			"componentType":5126,
			"count":1769,
			"max":[
				0.14624355733394623,
				0.6566892862319946,
				0.8360316157341003
			],
			"min":[
				-0.13552235066890717,
				-0.6274356842041016,
				-0.5602906346321106
			],
			"type":"VEC3"
		},
		{
			"bufferView":1,
			"componentType":5126,
			"count":1769,
			"type":"VEC3"
		},
		{
			"bufferView":2,
			"componentType":5126,
			"count":1769,
			"type":"VEC2"
		},
		{
			"bufferView":3,
			"componentType":5123,
			"count":2814,
			"type":"SCALAR"
		},
		{
			"bufferView":5,
			"componentType":5126,
			"count":80,
			"max":[
				0.0826096460223198,
				0.6895834803581238,
				0.7985638976097107
			],
			"min":[
				-0.08285297453403473,
				-0.5682945251464844,
				0.30978354811668396
			],
			"type":"VEC3"
		},
		{
			"bufferView":6,
			"componentType":5126,
			"count":80,
			"type":"VEC3"
		},
		{
			"bufferView":7,
			"componentType":5126,
			"count":80,
			"type":"VEC2"
		},
		{
			"bufferView":8,
			"componentType":5123,
			"count":156,
			"type":"SCALAR"
		},
		{
			"bufferView":9,
			"componentType":5126,
			"count":1146,
			"max":[
				0.14992591738700867,
				0.6934186220169067,
				0.8701955080032349
			],
			"min":[
				-0.13747626543045044,
				0.07529812306165695,
				-0.9106267094612122
			],
			"type":"VEC3"
		},
		{
			"bufferView":10,
			"componentType":5126,
			"count":1146,
			"type":"VEC3"
		},
		{
			"bufferView":11,
			"componentType":5126,
			"count":1146,
			"type":"VEC2"
		},
		{
			"bufferView":12,
			"componentType":5123,
			"count":2166,
			"type":"SCALAR"
		},
		{
			"bufferView":13,
			"componentType":5126,
			"count":114,
			"max":[
				0.14337468147277832,
				0.4983263909816742,
				0.21350708603858948
			],
			"min":[
				-0.13038989901542664,
				0.1705225706100464,
				-0.30210018157958984
			],
			"type":"VEC3"
		},
		{
			"bufferView":14,
			"componentType":5126,
			"count":114,
			"type":"VEC3"
		},
		{
			"bufferView":15,
			"componentType":5126,
			"count":114,
			"type":"VEC2"
		},
		{
			"bufferView":16,
			"componentType":5123,
			"count":234,
			"type":"SCALAR"
		},
		{
			"bufferView":17,
			"componentType":5126,
			"count":144,
			"max":[
				0.14981673657894135,
				0.6643676161766052,
				0.8414353728294373
			],
			"min":[
				-0.13735567033290863,
				0.10427282005548477,
				-0.8808374404907227
			],
			"type":"VEC3"
		},
		{
			"bufferView":18,
			"componentType":5126,
			"count":144,
			"type":"VEC3"
		},
		{
			"bufferView":19,
			"componentType":5126,
			"count":144,
			"type":"VEC2"
		},
		{
			"bufferView":20,
			"componentType":5123,
			"count":378,
			"type":"SCALAR"
		},
		{
			"bufferView":21,
			"componentType":5126,
			"count":896,
			"max":[
				0.09814374893903732,
				0.6103948950767517,
				0.34708958864212036
			],
			"min":[
				-0.07333395630121231,
				0.2528339624404907,
				-1.0306391716003418
			],
			"type":"VEC3"
		},
		{
			"bufferView":22,
			"componentType":5126,
			"count":896,
			"type":"VEC3"
		},
		{
			"bufferView":23,
			"componentType":5126,
			"count":896,
			"type":"VEC2"
		},
		{
			"bufferView":24,
			"componentType":5123,
			"count":1824,
			"type":"SCALAR"
		},
		{
			"bufferView":25,
			"componentType":5126,
			"count":720,
			"max":[
				0.1762923300266266,
				0.6390859484672546,
				0.8181583285331726
			],
			"min":[
				-0.16144923865795135,
				0.12837906181812286,
				-0.8277015686035156
			],
			"type":"VEC3"
		},
		{
			"bufferView":26,
			"componentType":5126,
			"count":720,
			"type":"VEC3"
		},
		{
			"bufferView":27,
			"componentType":5126,
			"count":720,
			"type":"VEC2"
		},
		{
			"bufferView":28,
			"componentType":5123,
			"count":1320,
			"type":"SCALAR"
		}
	],
	"bufferViews":[
		{
			"buffer":0,
			"byteLength":21228,
			"byteOffset":0,
			"target":34962
		},
		{
			"buffer":0,
			"byteLength":21228,
			"byteOffset":21228,
			"target":34962
		},
		{
			"buffer":0,
			"byteLength":14152,
			"byteOffset":42456,
			"target":34962
		},
		{
			"buffer":0,
			"byteLength":5628,
			"byteOffset":56608,
			"target":34963
		},
		{
			"buffer":0,
			"byteLength":69492,
			"byteOffset":62236
		},
		{
			"buffer":0,
			"byteLength":960,
			"byteOffset":131728,
			"target":34962
		},
		{
			"buffer":0,
			"byteLength":960,
			"byteOffset":132688,
			"target":34962
		},
		{
			"buffer":0,
			"byteLength":640,
			"byteOffset":133648,
			"target":34962
		},
		{
			"buffer":0,
			"byteLength":312,
			"byteOffset":134288,
			"target":34963
		},
		{
			"buffer":0,
			"byteLength":13752,
			"byteOffset":134600,
			"target":34962
		},
		{
			"buffer":0,
			"byteLength":13752,
			"byteOffset":148352,
			"target":34962
		},
		{
			"buffer":0,
			"byteLength":9168,
			"byteOffset":162104,
			"target":34962
		},
		{
			"buffer":0,
			"byteLength":4332,
			"byteOffset":171272,
			"target":34963
		},
		{
			"buffer":0,
			"byteLength":1368,
			"byteOffset":175604,
			"target":34962
		},
		{
			"buffer":0,
			"byteLength":1368,
			"byteOffset":176972,
			"target":34962
		},
		{
			"buffer":0,
			"byteLength":912,
			"byteOffset":178340,
			"target":34962
		},
		{
			"buffer":0,
			"byteLength":468,
			"byteOffset":179252,
			"target":34963
		},
		{
			"buffer":0,
			"byteLength":1728,
			"byteOffset":179720,
			"target":34962
		},
		{
			"buffer":0,
			"byteLength":1728,
			"byteOffset":181448,
			"target":34962
		},
		{
			"buffer":0,
			"byteLength":1152,
			"byteOffset":183176,
			"target":34962
		},
		{
			"buffer":0,
			"byteLength":756,
			"byteOffset":184328,
			"target":34963
		},
		{
			"buffer":0,
			"byteLength":10752,
			"byteOffset":185084,
			"target":34962
		},
		{
			"buffer":0,
			"byteLength":10752,
			"byteOffset":195836,
			"target":34962
		},
		{
			"buffer":0,
			"byteLength":7168,
			"byteOffset":206588,
			"target":34962
		},
		{
			"buffer":0,
			"byteLength":3648,
			"byteOffset":213756,
			"target":34963
		},
		{
			"buffer":0,
			"byteLength":8640,
			"byteOffset":217404,
			"target":34962
		},
		{
			"buffer":0,
			"byteLength":8640,
			"byteOffset":226044,
			"target":34962
		},
		{
			"buffer":0,
			"byteLength":5760,
			"byteOffset":234684,
			"target":34962
		},
		{
			"buffer":0,
			"byteLength":2640,
			"byteOffset":240444,
			"target":34963
		}
	],
	"samplers":[
		{
			"magFilter":9729,
			"minFilter":9987
		}
	],
	"buffers":[
		{
			"byteLength":243084,
			"uri":"data:application/octet-stream;base64,"
		}
	]
}
