{
	"asset":{
		"generator":"Khronos glTF Blender I/O v3.6.28",
		"version":"2.0"
	},
	"scene":0,
	"scenes":[
		{
			"name":"Scene",
			"nodes":[
				0
			]
		}
	],
	"nodes":[
		{
			"mesh":0,
			"name":"Cube.001"
		}
	],
	"materials":[
		{
			"doubleSided":true,
			"name":"Material.004",
			"pbrMetallicRoughness":{
				"baseColorTexture":{
					"index":0
				},
				"metallicFactor":0,
				"roughnessFactor":0.5
			}
		},
		{
			"doubleSided":true,
			"name":"Material.007",
			"pbrMetallicRoughness":{
				"baseColorTexture":{
					"index":1
				},
				"metallicFactor":0,
				"roughnessFactor":0.5
			}
		},
		{
			"doubleSided":true,
			"name":"Material.008",
			"pbrMetallicRoughness":{
				"baseColorTexture":{
					"index":2
				},
				"metallicFactor":0,
				"roughnessFactor":0.5
			}
		}
	],
	"meshes":[
		{
			"name":"Cube.001",
			"primitives":[
				{
					"attributes":{
						"POSITION":0,
						"NORMAL":1,
						"TEXCOORD_0":2
					},
					"indices":3,
					"material":0
				},
				{
					"attributes":{
						"POSITION":4,
						"NORMAL":5,
						"TEXCOORD_0":6
					},
					"indices":7,
					"material":1
				},
				{
					"attributes":{
						"POSITION":8,
						"NORMAL":9,
						"TEXCOORD_0":10
					},
					"indices":11,
					"material":2
				}
			]
		}
	],
	"textures":[
		{
			"sampler":0,
			"source":0
		},
		{
			"sampler":0,
			"source":0
		},
		{
			"sampler":0,
			"source":0
		}
	],
	"images":[
		{
			"bufferView":4,
			"mimeType":"image/png",
			"name":"bejk"
		}
	],
	"accessors":[
		{
			"bufferView":0,
			"componentType":5126,
			"count":480,
			"max":[
				0.5889874696731567,
				0.8572153449058533,
				0.58872389793396
			],
			"min":[
				-0.5889874696731567,
				0.2711677849292755,
				-0.58872389793396
			],
			"type":"VEC3"
		},
		{
			"bufferView":1,
			"componentType":5126,
			"count":480,
			"type":"VEC3"
		},
		{
			"bufferView":2,
			"componentType":5126,
			"count":480,
			"type":"VEC2"
		},
		{
			"bufferView":3,
			"componentType":5123,
			"count":720,
			"type":"SCALAR"
		},
		{
			"bufferView":5,
			"componentType":5126,
			"count":512,
			"max":[
				0.977293848991394,
				0.2957157492637634,
				0.977293848991394
			],
			"min":[
				-0.977293848991394,
				-0.052255965769290924,
				-0.977293848991394
			],
			"type":"VEC3"
		},
		{
			"bufferView":6,
			"componentType":5126,
			"count":512,
			"type":"VEC3"
		},
		{
			"bufferView":7,
			"componentType":5126,
			"count":512,
			"type":"VEC2"
		},
		{
			"bufferView":8,
			"componentType":5123,
			"count":852,
			"type":"SCALAR"
		},
		{
			"bufferView":9,
			"componentType":5126,
			"count":480,
			"max":[
				0.9488861560821533,
				0.29996514320373535,
				0.9488887786865234
			],
			"min":[
				-0.9488908052444458,
				0.06868243217468262,
				-0.9488829374313354
			],
			"type":"VEC3"
		},
		{
			"bufferView":10,
			"componentType":5126,
			"count":480,
			"type":"VEC3"
		},
		{
			"bufferView":11,
			"componentType":5126,
			"count":480,
			"type":"VEC2"
		},
		{
			"bufferView":12,
			"componentType":5123,
			"count":480,
			"type":"SCALAR"
		}
	],
	"bufferViews":[
		{
			"buffer":0,
			"byteLength":5760,
			"byteOffset":0,
			"target":34962
		},
		{
			"buffer":0,
			"byteLength":5760,
			"byteOffset":5760,
			"target":34962
		},
		{
			"buffer":0,
			"byteLength":3840,
			"byteOffset":11520,
			"target":34962
		},
		{
			"buffer":0,
			"byteLength":1440,
			"byteOffset":15360,
			"target":34963
		},
		{
			"buffer":0,
			"byteLength":51857,
			"byteOffset":16800
		},
		{
			"buffer":0,
			"byteLength":6144,
			"byteOffset":68660,
			"target":34962
		},
		{
			"buffer":0,
			"byteLength":6144,
			"byteOffset":74804,
			"target":34962
		},
		{
			"buffer":0,
			"byteLength":4096,
			"byteOffset":80948,
			"target":34962
		},
		{
			"buffer":0,
			"byteLength":1704,
			"byteOffset":85044,
			"target":34963
		},
		{
			"buffer":0,
			"byteLength":5760,
			"byteOffset":86748,
			"target":34962
		},
		{
			"buffer":0,
			"byteLength":5760,
			"byteOffset":92508,
			"target":34962
		},
		{
			"buffer":0,
			"byteLength":3840,
			"byteOffset":98268,
			"target":34962
		},
		{
			"buffer":0,
			"byteLength":960,
			"byteOffset":102108,
			"target":34963
		}
	],
	"samplers":[
		{
			"magFilter":9729,
			"minFilter":9987
		}
	],
	"buffers":[
		{
			"byteLength":103068,
			"uri":"data:application/octet-stream;base64,"
		}
	]
}
