{
	"asset":{
		"generator":"Khronos glTF Blender I/O v3.6.28",
		"version":"2.0"
	},
	"scene":0,
	"scenes":[
		{
			"name":"Scene",
			"nodes":[
				0
			]
		}
	],
	"nodes":[
		{
			"mesh":0,
			"name":"Icosphere.002"
		}
	],
	"materials":[
		{
			"doubleSided":true,
			"name":"Rocks.001",
			"pbrMetallicRoughness":{
				"baseColorTexture":{
					"index":0
				},
				"metallicFactor":0,
				"roughnessFactor":0.6748917698860168
			}
		}
	],
	"meshes":[
		{
			"name":"Icosphere.003",
			"primitives":[
				{
					"attributes":{
						"POSITION":0,
						"NORMAL":1,
						"TEXCOORD_0":2
					},
					"indices":3,
					"material":0
				}
			]
		}
	],
	"textures":[
		{
			"sampler":0,
			"source":0
		}
	],
	"images":[
		{
			"bufferView":4,
			"mimeType":"image/png",
			"name":"rockBaked"
		}
	],
	"accessors":[
		{
			"bufferView":0,
			"componentType":5126,
			"count":630,
			"max":[
				0.16147759556770325,
				0.07218517363071442,
				0.10688178241252899
			],
			"min":[
				-0.20592981576919556,
				-0.037454791367053986,
				-0.11412321031093597
			],
			"type":"VEC3"
		},
		{
			"bufferView":1,
			"componentType":5126,
			"count":630,
			"type":"VEC3"
		},
		{
			"bufferView":2,
			"componentType":5126,
			"count":630,
			"type":"VEC2"
		},
		{
			"bufferView":3,
			"componentType":5123,
			"count":630,
			"type":"SCALAR"
		}
	],
	"bufferViews":[
		{
			"buffer":0,
			"byteLength":7560,
			"byteOffset":0,
			"target":34962
		},
		{
			"buffer":0,
			"byteLength":7560,
			"byteOffset":7560,
			"target":34962
		},
		{
			"buffer":0,
			"byteLength":5040,
			"byteOffset":15120,
			"target":34962
		},
		{
			"buffer":0,
			"byteLength":1260,
			"byteOffset":20160,
			"target":34963
		},
		{
			"buffer":0,
			"byteLength":17006,
			"byteOffset":21420
		}
	],
	"samplers":[
		{
			"magFilter":9729,
			"minFilter":9987
		}
	],
	"buffers":[
		{
			"byteLength":38428,
			"uri":"data:application/octet-stream;base64,"
		}
	]
}
