{
	"asset":{
		"generator":"Khronos glTF Blender I/O v3.6.28",
		"version":"2.0"
	},
	"scene":0,
	"scenes":[
		{
			"name":"Scene",
			"nodes":[
				0
			]
		}
	],
	"nodes":[
		{
			"mesh":0,
			"name":"Sphere"
		}
	],
	"materials":[
		{
			"doubleSided":true,
			"name":"Material.003",
			"pbrMetallicRoughness":{
				"baseColorTexture":{
					"index":0
				},
				"metallicFactor":0,
				"roughnessFactor":0.5
			}
		}
	],
	"meshes":[
		{
			"name":"Sphere.001",
			"primitives":[
				{
					"attributes":{
						"POSITION":0,
						"NORMAL":1,
						"TEXCOORD_0":2
					},
					"indices":3,
					"material":0
				}
			]
		}
	],
	"textures":[
		{
			"sampler":0,
			"source":0
		}
	],
	"images":[
		{
			"bufferView":4,
			"mimeType":"image/png",
			"name":"bake grass color"
		}
	],
	"accessors":[
		{
			"bufferView":0,
			"componentType":5126,
			"count":3840,
			"max":[
				9.999999046325684,
				10,
				10
			],
			"min":[
				-9.999999046325684,
				-10,
				-10
			],
			"type":"VEC3"
		},
		{
			"bufferView":1,
			"componentType":5126,
			"count":3840,
			"type":"VEC3"
		},
		{
			"bufferView":2,
			"componentType":5126,
			"count":3840,
			"type":"VEC2"
		},
		{
			"bufferView":3,
			"componentType":5123,
			"count":3840,
			"type":"SCALAR"
		}
	],
	"bufferViews":[
		{
			"buffer":0,
			"byteLength":46080,
			"byteOffset":0,
			"target":34962
		},
		{
			"buffer":0,
			"byteLength":46080,
			"byteOffset":46080,
			"target":34962
		},
		{
			"buffer":0,
			"byteLength":30720,
			"byteOffset":92160,
			"target":34962
		},
		{
			"buffer":0,
			"byteLength":7680,
			"byteOffset":122880,
			"target":34963
		},
		{
			"buffer":0,
			"byteLength":37725,
			"byteOffset":130560
		}
	],
	"samplers":[
		{
			"magFilter":9729,
			"minFilter":9987
		}
	],
	"buffers":[
		{
			"byteLength":168288,
			"uri":"data:application/octet-stream;base64,"
		}
	]
}
