{
	"asset":{
		"generator":"Khronos glTF Blender I/O v3.6.27",
		"version":"2.0"
	},
	"scene":0,
	"scenes":[
		{
			"name":"Scene",
			"nodes":[
				0
			]
		}
	],
	"nodes":[
		{
			"mesh":0,
			"name":"Suzanne"
		}
	],
	"materials":[
		{
			"doubleSided":true,
			"name":"Material.002",
			"pbrMetallicRoughness":{
				"baseColorTexture":{
					"index":0
				},
				"metallicFactor":0,
				"roughnessFactor":0.5
			}
		},
		{
			"doubleSided":true,
			"name":"Rocks",
			"pbrMetallicRoughness":{
				"baseColorTexture":{
					"index":1
				},
				"metallicFactor":0,
				"roughnessFactor":0.0476190447807312
			}
		}
	],
	"meshes":[
		{
			"name":"Suzanne",
			"primitives":[
				{
					"attributes":{
						"POSITION":0,
						"NORMAL":1,
						"TEXCOORD_0":2
					},
					"indices":3,
					"material":0
				},
				{
					"attributes":{
						"POSITION":4,
						"NORMAL":5,
						"TEXCOORD_0":6
					},
					"indices":7,
					"material":1
				}
			]
		}
	],
	"textures":[
		{
			"sampler":0,
			"source":0
		},
		{
			"sampler":0,
			"source":1
		}
	],
	"images":[
		{
			"bufferView":4,
			"mimeType":"image/png",
			"name":"base"
		},
		{
			"bufferView":9,
			"mimeType":"image/png",
			"name":"rock_img"
		}
	],
	"accessors":[
		{
			"bufferView":0,
			"componentType":5126,
			"count":3840,
			"max":[
				9.999999046325684,
				10,
				9.999999046325684
			],
			"min":[
				-10,
				-10,
				-10
			],
			"type":"VEC3"
		},
		{
			"bufferView":1,
			"componentType":5126,
			"count":3840,
			"type":"VEC3"
		},
		{
			"bufferView":2,
			"componentType":5126,
			"count":3840,
			"type":"VEC2"
		},
		{
			"bufferView":3,
			"componentType":5123,
			"count":3840,
			"type":"SCALAR"
		},
		{
			"bufferView":5,
			"componentType":5126,
			"count":630,
			"max":[
				1.686108112335205,
				10.539422035217285,
				1.152732491493225
			],
			"min":[
				-1.654697299003601,
				9.542474746704102,
				-0.8568480014801025
			],
			"type":"VEC3"
		},
		{
			"bufferView":6,
			"componentType":5126,
			"count":630,
			"type":"VEC3"
		},
		{
			"bufferView":7,
			"componentType":5126,
			"count":630,
			"type":"VEC2"
		},
		{
			"bufferView":8,
			"componentType":5123,
			"count":630,
			"type":"SCALAR"
		}
	],
	"bufferViews":[
		{
			"buffer":0,
			"byteLength":46080,
			"byteOffset":0,
			"target":34962
		},
		{
			"buffer":0,
			"byteLength":46080,
			"byteOffset":46080,
			"target":34962
		},
		{
			"buffer":0,
			"byteLength":30720,
			"byteOffset":92160,
			"target":34962
		},
		{
			"buffer":0,
			"byteLength":7680,
			"byteOffset":122880,
			"target":34963
		},
		{
			"buffer":0,
			"byteLength":61635,
			"byteOffset":130560
		},
		{
			"buffer":0,
			"byteLength":7560,
			"byteOffset":192196,
			"target":34962
		},
		{
			"buffer":0,
			"byteLength":7560,
			"byteOffset":199756,
			"target":34962
		},
		{
			"buffer":0,
			"byteLength":5040,
			"byteOffset":207316,
			"target":34962
		},
		{
			"buffer":0,
			"byteLength":1260,
			"byteOffset":212356,
			"target":34963
		},
		{
			"buffer":0,
			"byteLength":20719,
			"byteOffset":213616
		}
	],
	"samplers":[
		{
			"magFilter":9729,
			"minFilter":9987
		}
	],
	"buffers":[
		{
			"byteLength":234336,
			"uri":"data:application/octet-stream;base64,"
		}
	]
}
