{
	"asset":{
		"generator":"Khronos glTF Blender I/O v4.0.44",
		"version":"2.0"
	},
	"scene":0,
	"scenes":[
		{
			"name":"Scene",
			"nodes":[
				0
			]
		}
	],
	"nodes":[
		{
			"mesh":0,
			"name":"Smreka01",
			"scale":[
				-0.024322668090462685,
				-0.33578261733055115,
				-0.024322668090462685
			],
			"translation":[
				0.0022923764772713184,
				0.27892380952835083,
				0.004468513652682304
			]
		}
	],
	"materials":[
		{
			"doubleSided":true,
			"name":"Log",
			"pbrMetallicRoughness":{
				"baseColorFactor":[
					0.049661871045827866,
					0.016022751107811928,
					0.0014114889781922102,
					1
				],
				"metallicFactor":0,
				"roughnessFactor":0.751968502998352
			}
		},
		{
			"doubleSided":true,
			"name":"Darker green",
			"pbrMetallicRoughness":{
				"baseColorFactor":[
					0.018261495977640152,
					0.08255711197853088,
					0.026600856333971024,
					1
				],
				"metallicFactor":0,
				"roughnessFactor":0.5
			}
		}
	],
	"meshes":[
		{
			"name":"Cylinder.006",
			"primitives":[
				{
					"attributes":{
						"POSITION":0,
						"NORMAL":1,
						"TEXCOORD_0":2
					},
					"indices":3,
					"material":0
				},
				{
					"attributes":{
						"POSITION":4,
						"NORMAL":5,
						"TEXCOORD_0":6
					},
					"indices":7,
					"material":1
				}
			]
		}
	],
	"accessors":[
		{
			"bufferView":0,
			"componentType":5126,
			"count":84,
			"max":[
				1.891559362411499,
				0.8752928376197815,
				2.29245662689209
			],
			"min":[
				-1.347860336303711,
				-0.9587252736091614,
				-1.3565174341201782
			],
			"type":"VEC3"
		},
		{
			"bufferView":1,
			"componentType":5126,
			"count":84,
			"type":"VEC3"
		},
		{
			"bufferView":2,
			"componentType":5126,
			"count":84,
			"type":"VEC2"
		},
		{
			"bufferView":3,
			"componentType":5123,
			"count":132,
			"type":"SCALAR"
		},
		{
			"bufferView":4,
			"componentType":5126,
			"count":2464,
			"max":[
				9.965851783752441,
				0.3990212678909302,
				10.268815994262695
			],
			"min":[
				-11.487613677978516,
				-1.0190967321395874,
				-10.27037239074707
			],
			"type":"VEC3"
		},
		{
			"bufferView":5,
			"componentType":5126,
			"count":2464,
			"type":"VEC3"
		},
		{
			"bufferView":6,
			"componentType":5126,
			"count":2464,
			"type":"VEC2"
		},
		{
			"bufferView":7,
			"componentType":5123,
			"count":3696,
			"type":"SCALAR"
		}
	],
	"bufferViews":[
		{
			"buffer":0,
			"byteLength":1008,
			"byteOffset":0,
			"target":34962
		},
		{
			"buffer":0,
			"byteLength":1008,
			"byteOffset":1008,
			"target":34962
		},
		{
			"buffer":0,
			"byteLength":672,
			"byteOffset":2016,
			"target":34962
		},
		{
			"buffer":0,
			"byteLength":264,
			"byteOffset":2688,
			"target":34963
		},
		{
			"buffer":0,
			"byteLength":29568,
			"byteOffset":2952,
			"target":34962
		},
		{
			"buffer":0,
			"byteLength":29568,
			"byteOffset":32520,
			"target":34962
		},
		{
			"buffer":0,
			"byteLength":19712,
			"byteOffset":62088,
			"target":34962
		},
		{
			"buffer":0,
			"byteLength":7392,
			"byteOffset":81800,
			"target":34963
		}
	],
	"buffers":[
		{
			"byteLength":89192,
			"uri":"Smreka01.bin"
		}
	]
}
